<svg version="1.1" id="Layer_1"
  xmlns="http://www.w3.org/2000/svg"
  xmlns:xlink="http://www.w3.org/1999/xlink" x="0px" y="0px" viewBox="0 0 60 60" style="enable-background:new 0 0 60 60;" xml:space="preserve" fit="" height="100%" width="100%" preserveAspectRatio="xMidYMid meet" focusable="false">
  <style type="text/css">
	.st0{fill:none;stroke:#000000;stroke-linecap:round;stroke-linejoin:round;stroke-miterlimit:10;}
  </style>
  <path class="st0" d="M12,27.6c1.6-0.8,2.6,0.7,2.1,1.8c-1,2.3,1.9,1.1,0,3.8c0,0-1.7,1.6,0.4,2c3.6,0.6,0.1,5.7-1.2,4
	c-0.7-1,0.4-0.3-1.4-3.1c-2.9-4.5,0.1-4.6-1.4-6.6c-2-2.8-0.3-7.1,3.4-5c3.3,1.8,2.8,3.6,3,4.7c-0.3-3-0.7-5.6-5-7.6
	c-4.7-2.3,2.7-6.6,2.7-10.8c0-4,2.6-5.4,8.3-5.4c6.1,0.1,6.8-3.2,12.4-1.8c4.3,1,6.3,4,8.5,9c1,2.4,1.2,5.4,1.2,8.1
	c0,1.9-0.2,2.4,2.9,4.8s-3.2,8-2,10.5c-0.6-1.5,1-2.9,0.9-5.2c-0.1-2.5-1.5-4.4-0.3-6.4c1.9-3.3,3.4-4.4-2-8.5
	c-3.2-2.4-5-7.4-7.4-6.3c-2.3,1-3.3,1.2-10.6,0.2c-6.9-0.9-9.7,6.8-8.8,9.4c0.5,1.2,1.9,1.1,2.2,2.2c0.3,1.6-1.7,4.8-0.4,5.8
	c0.7,0.5,1.3,0.1,2.7-1.3c2.6-2.5,4-1.6,6.1-1.6c3.7,0,4.3,5.7,0.9,4.7c-2-0.6-1.8-1.5-1.2-1.5c1.2,0-0.3,2.6-2.5,1.5
	c-1.4-0.8-1-2.9,2-3c3.6-0.2,4.1,0.9,4,2.1c-0.2,2.2-2.1,7-8,2.5c-1.5-1.1-2.4,1.3-4.8,0.9c-0.7-0.1,2,1.5,1,3.4
	c-2.2,4.1,1.3,5.6,0.9,5.4c-1.7-0.9,0.2-3.7,3.8-3.1c3.1,0.5,3-2,5.8-3.1c0,0-2.7,0.9-0.9,3.3c0.8,1.1,2.3,0.9,3.1,0.1
	c1.2-1.2-2.3-1,0.9,0.8c1.3,0.7,2,0.5,2.9,0s1.5-1.7,0.6-3.4c-1.4-3-1.7-4.8-1.7-7.3c0-1.7,2.5-1.6,3.8-1.6c3.7,0,3.5,3.2,1.3,3.4
	c-1.8,0.2-2.7-1.7-1.7-1.8c1-0.1,0.3,2.1-1.9,1.7c-1-0.2-1.5-0.9-1.5-1.7c0-0.5,0-1.6,1.5-2.5c0.9-0.6,1.7-0.8,3.2-0.7
	c1,0,2.2-0.3,3.4,0.8c1.2,1.1,0.5,1.7,1.3,4.4c0.5,1.8-0.4,4.7-2.8,4.8c-2.1,0.1-3.3-0.8-3.3-0.8c4.6,3.9-1.5,5.5-0.9,3.9
	c0.1-0.3,0.6-0.4,0.9,0.4c0.5,1.3,2.9,1.9,5.4,1c2.8-1.1,5.5,0.9,3.7,2.5c-2.3,2,0.5,3.1,1.3,3.5c4.2,2.1-0.1,7.8-2,7.1
	c-1.8-0.6,1.1-2.2,0.1,1.1c-1,3.2-5.5,4.2-9.3,2c-5.2-2.9,3-3.1-3.3,0.5c-4.4,2.6-9.3,0.8-9.5-1.3c-0.1-1.3,2.8-0.1-1.4,1.4
	c-4.4,1.6-6.9-4.4-5.3-6c1.7-1.7,1.5,2.1-1.2-1.4c-2.2-2.8-1.5-11.9,5.8-6.8c6.3,4.4,13.6,0.3,12-0.5c-1.1-0.6-2.4,2,5.1,2.6
	c3.1,0.2,5.2-0.3,7.3-1.9c0.1-0.1,0.2-0.2,0.3-0.3"></path>
</svg>